<?xml version="1.0" encoding="utf-8"?>
<!-- Generator: Adobe Illustrator 12.0.0, SVG Export Plug-In . SVG Version: 6.00 Build 51448)  -->
<!DOCTYPE svg PUBLIC "-//W3C//DTD SVG 1.1//EN" "http://www.w3.org/Graphics/SVG/1.1/DTD/svg11.dtd" [
	<!ENTITY ns_svg "http://www.w3.org/2000/svg">
	<!ENTITY ns_xlink "http://www.w3.org/1999/xlink">
]>
<svg  version="1.1" id="Layer_1" xmlns="&ns_svg;" xmlns:xlink="&ns_xlink;" width="3492.89" height="828.891"
	 viewBox="0 0 3492.89 828.891" overflow="visible" enable-background="new 0 0 3492.89 828.891" xml:space="preserve">
<g>
	<g>
		<defs>
			<rect id="XMLID_1_" x="0" width="3492.889" height="828.891"/>
		</defs>
		<clipPath id="XMLID_5_">
			<use xlink:href="#XMLID_1_" />
		</clipPath>
		<rect x="0.445" y="0.445" clip-path="url(#XMLID_5_)" fill="#FFFFFF" width="3492" height="828"/>
		<g clip-path="url(#XMLID_5_)">
			<defs>
				<rect id="XMLID_3_" x="0" width="3492.89" height="828.891"/>
			</defs>
			<clipPath id="XMLID_6_">
				<use xlink:href="#XMLID_3_" />
			</clipPath>
			
				<rect x="0.445" y="0.446" clip-path="url(#XMLID_6_)" fill="none" stroke="#000000" stroke-width="0.891" stroke-miterlimit="10" width="3492" height="828"/>
			<path clip-path="url(#XMLID_6_)" fill="#80C342" d="M1093.071,327.197h-75.378v286.758h75.378V327.197z M1098.528,260.559
				c0-23.484-19.662-43.147-43.146-43.147c-23.491,0-43.154,19.663-43.154,43.147c0,23.491,19.663,43.152,43.154,43.152
				C1078.866,303.711,1098.528,284.05,1098.528,260.559 M995.851,341.401c-9.831-10.383-28.403-20.214-52.984-20.214
				c-26.762,0-45.879,11.474-58.986,25.127v-19.117h-75.378v286.758h75.378V458.83c0-49.701,19.116-62.264,48.61-62.264
				c16.931,0,31.681,7.644,43.698,18.572L995.851,341.401z M405.951,529.842c-8.188,13.651-27.852,26.216-52.433,26.216
				c-32.225,0-43.698-18.028-43.698-38.235c0-22.938,15.295-36.047,43.698-36.047c26.762,0,39.325,3.822,52.433,12.011V529.842z
				 M481.33,613.955V421.692c0-64.45-46.976-100.505-116.338-100.505c-46.43,0-74.288,9.831-107.603,28.949l28.948,52.438
				c26.216-14.205,44.243-19.117,78.655-19.117c27.306,0,40.959,16.386,40.959,36.594v14.205
				c-12.012-6.011-28.949-11.475-55.165-11.475c-64.996,0-116.338,31.682-116.338,95.041c0,69.37,53.523,102.141,107.052,102.141
				c26.768,0,50.797-10.929,64.451-25.126v19.117H481.33z"/>
			<path clip-path="url(#XMLID_6_)" fill="#80C342" d="M1666.643,90.153c0,0-111.427,30.59-239.969,168.233
				c-128.535,137.642-70.272,294.947-70.272,294.947l1.09,17.481c0,0,45.879-66.824,87.396-120.167
				c41.506-53.344,171.504-201.003,171.504-201.003s-78.962,159.917-122.348,233.773
				c-43.386,73.863-102.871,137.642-102.871,137.642s111.545,12.749,220.305-134.91
				C1720.238,338.498,1666.643,90.153,1666.643,90.153"/>
			<path clip-path="url(#XMLID_6_)" fill="#008A44" d="M3258.441,613.956V452.278c0-80.837-32.776-131.09-105.967-131.09
				c-30.039,0-54.076,11.474-67.184,25.126v-19.116h-75.372v286.758h75.372V457.197c0-49.708,18.025-65.003,49.162-65.003
				c31.128,0,48.611,15.295,48.611,66.637v155.125H3258.441z M2902.322,470.849c0,39.869-17.482,76.47-53.529,76.47
				c-36.048,0-52.984-32.227-52.984-76.47c0-44.244,16.937-77.014,52.984-77.014C2884.84,393.835,2902.322,427.152,2902.322,470.849
				 M2978.79,470.849c0-87.941-55.171-149.661-129.997-149.661c-74.834,0-129.453,61.72-129.453,149.661
				s54.619,149.115,129.453,149.115C2923.619,619.964,2978.79,558.791,2978.79,470.849 M2685.48,327.198h-75.379v286.758h75.379
				V327.198z M2690.943,260.56c0-23.483-19.67-43.146-43.153-43.146c-23.484,0-43.153,19.663-43.153,43.146
				c0,23.484,19.669,43.153,43.153,43.153C2671.273,303.713,2690.943,284.044,2690.943,260.56 M2564.23,526.013
				c-18.573,15.842-28.95,21.851-42.603,21.851c-18.026,0-27.858-7.101-27.858-34.412V398.203h68.817v-71.005h-68.817V215.771
				l-75.379,37.689v73.737h-48.064v71.005h48.064v135.462c0,50.246,30.045,86.3,76.469,86.3c23.492,0,45.886-7.65,58.449-17.481
				L2564.23,526.013z M2347.387,613.956V327.198h-75.379v156.759c0,49.708-18.021,64.997-49.154,64.997
				c-31.136,0-48.611-15.289-48.611-66.631V327.198h-75.379v161.678c0,80.836,32.771,131.089,105.962,131.089
				c30.045,0,54.075-11.473,67.183-25.126v19.117H2347.387z M2052.984,613.956V215.771l-75.379,37.689v360.495H2052.984z
				 M1872.741,470.849c0,39.869-17.475,76.47-53.529,76.47c-36.047,0-52.978-32.227-52.978-76.47
				c0-44.244,16.931-77.014,52.978-77.014C1855.267,393.835,1872.741,427.152,1872.741,470.849 M1949.21,470.849
				c0-87.941-55.164-149.661-129.998-149.661c-74.826,0-129.446,61.72-129.446,149.661s54.62,149.115,129.446,149.115
				C1894.046,619.964,1949.21,558.791,1949.21,470.849"/>
			<path clip-path="url(#XMLID_6_)" fill="#008A44" d="M1337.238,341.405c15.354-46.975,47.945-87.39,47.945-87.39
				s-24.861-38.234-63.719-78.655c-38.866-40.422-80.298-68.818-80.298-68.818s-122.799,187.402-83.562,348.29
				c27.313,111.971,153.842,147.66,153.842,147.66s-58.263-72.103-74.647-183.527c-18.446-125.446,5.464-172.602,5.464-172.602
				s5.557,41.686,29.799,122.354c18.904,62.929,50.844,119.29,52.486,121.981C1321.883,477.385,1313.945,412.643,1337.238,341.405"
				/>
			<path clip-path="url(#XMLID_6_)" fill="#80C342" d="M689.24,525.473c-10.921,14.205-22.939,24.036-46.424,24.036
				c-29.493,0-49.162-24.581-49.162-83.568c0-48.065,15.84-73.191,44.788-73.191c21.849,0,39.331,8.734,50.798,24.575V525.473z
				 M764.618,565.894V327.748H689.24v16.385c-13.654-12.556-35.502-22.395-60.629-22.395c-71.004,0-111.426,60.085-111.426,145.84
				c0,107.058,50.253,152.937,111.426,152.937c27.313,0,46.43-11.467,60.629-24.028c3.443,81.381-58.83,94.811-130.953,59.741
				l-5.4,66.613C607.673,741.591,764.758,782.739,764.618,565.894"/>
		</g>
	</g>
</g>
</svg>
